<?xml version="1.0" encoding="utf-8"?>
<!-- Generator: Adobe Illustrator 16.0.0, SVG Export Plug-In . SVG Version: 6.00 Build 0)  -->
<!DOCTYPE svg PUBLIC "-//W3C//DTD SVG 1.1//EN" "http://www.w3.org/Graphics/SVG/1.1/DTD/svg11.dtd">
<svg version="1.1" id="Layer_1" xmlns="http://www.w3.org/2000/svg" xmlns:xlink="http://www.w3.org/1999/xlink" x="0px" y="0px"
	 width="13.523px" height="13.522px" viewBox="0 0 13.523 13.522" enable-background="new 0 0 13.523 13.522" xml:space="preserve">
<path fill="#B3B3B3" d="M13.224,11.772l-2.821-2.819c0.641-0.922,1.015-2.039,1.015-3.244C11.417,2.561,8.856,0,5.709,0
	C2.561,0,0,2.561,0,5.709c0,3.147,2.561,5.708,5.709,5.708c1.205,0,2.322-0.375,3.245-1.014l2.817,2.818
	c0.2,0.201,0.463,0.301,0.727,0.301c0.262,0,0.524-0.1,0.726-0.301C13.623,12.821,13.623,12.172,13.224,11.772z M2.051,5.709
	c0-2.017,1.643-3.658,3.658-3.658c2.018,0,3.658,1.641,3.658,3.658S7.727,9.366,5.709,9.366C3.693,9.366,2.051,7.726,2.051,5.709z"
	/>
</svg>
