<?xml version="1.0" encoding="utf-8"?>
<!-- Generator: Adobe Illustrator 16.0.0, SVG Export Plug-In . SVG Version: 6.00 Build 0)  -->
<!DOCTYPE svg PUBLIC "-//W3C//DTD SVG 1.1//EN" "http://www.w3.org/Graphics/SVG/1.1/DTD/svg11.dtd">
<svg version="1.1" id="Layer_1" xmlns="http://www.w3.org/2000/svg" xmlns:xlink="http://www.w3.org/1999/xlink" x="0px" y="0px"
	 width="172.926px" height="29.407px" viewBox="0 0 172.926 29.407" enable-background="new 0 0 172.926 29.407"
	 xml:space="preserve">
<g>
	<g>
		<g>
			<path fill="#040303" d="M9.106,3.964c1.586-3.625,2.895-3.604,2.895-3.604V0.017c0,0-3.198-0.511-5.334,4.097
				c-1.431,0.12-2.549,0.25-2.88,0.25c-1.078,0-2.574,0.127-2.574,0.633c0,0.571,0.738,0.763,1.434,0.763
				c0.279,0,1.748-0.234,3.525-0.413C5.34,7.758,4.176,12.857,2.828,16.817C1.709,20.114,0,22.179,0,22.179v0.339
				c0,0,4.095-0.671,5.932-8.063C6.77,11.101,7.655,7.763,8.629,5.16c1.981-0.085,3.881,0.02,4.689,0.646
				c1.906,1.48,1.792,10.57,1.366,12.961c-0.597,3.365-3.856,2.983-3.856,2.983v0.506c0,0,3.536,0.868,5.281-0.877
				c1.741-1.742,1.611-12.83-0.448-16.204C14.947,4.005,11.934,3.853,9.106,3.964z"/>
			<path fill="#040303" d="M14.904,1.991v0.44c1.42,0,3.986,2.744,4.612,6.656c0.208,1.322,1.517,0.829,1.517,0
				C21.033,5.359,18.3,1.991,14.904,1.991z"/>
		</g>
		<path fill="#040303" d="M40.723,21.617c-2.797-0.079-4.503-12.801-8.665-12.919c-0.467-0.014-0.907,0.108-1.28,0.269
			c0.466-1.439,0.943-2.788,1.435-3.958c1.854-4.38,3.35-4.311,3.35-4.311l0.009-0.343c0,0-3.538-0.671-5.81,4.734
			c-0.901,2.153-2.279,7.627-3.832,11.8c-1.213,3.266-2.982,5.28-2.982,5.28l-0.011,0.341c0,0,4.112-0.557,6.159-7.895
			c0.466-1.668,0.946-3.328,1.439-4.899c0.289-0.187,0.58-0.285,0.845-0.278c2.751,0.079,4.331,13.087,8.924,13.217
			c2.944,0.083,3.719-1.598,3.719-1.598l0.013-0.498C44.034,20.56,42.485,21.663,40.723,21.617z"/>
		<g>
			<path fill="#040303" d="M59.167,1.278c0.184,0.295,0.332,0.691,0.536,1.057c0.553,0.989,2.142,0.963,2.142,0.963l-0.003-0.214
				c0,0-0.321-0.132-0.534-0.492c-0.268-0.459-0.498-1.062-0.659-1.3c-0.399-0.595-1.958-0.534-1.958-0.534v0.239
				C58.69,0.997,58.96,0.943,59.167,1.278z"/>
			<path fill="#040303" d="M63.847,2.593c-0.275-0.459-0.505-1.062-0.663-1.3c-0.396-0.595-1.955-0.534-1.955-0.534v0.239
				c0,0,0.267-0.054,0.476,0.281c0.186,0.295,0.333,0.691,0.536,1.057c0.554,0.989,2.14,0.963,2.14,0.963V3.084
				C64.38,3.084,64.057,2.953,63.847,2.593z"/>
			<path fill="#040303" d="M62.335,4.433c-0.548,0-3.279,0-6.29,0c-0.338-0.708-0.644-1.307-0.909-1.704
				c-2.008-3.014-4.517-2.697-4.517-2.697v0.358c0,0,0.521-0.185,2.163,2.256c0.363,0.54,0.712,1.144,1.05,1.787
				c-3.269,0-6.319,0-6.761,0c-0.952,0-0.872,0.887,0,0.887c0.413,0,3.749,0,7.208,0c0.415,0.857,0.821,1.759,1.211,2.667
				c1.75,4.071,5.676,4.442,5.676,4.442v-0.558c0,0-1.627-0.765-2.698-2.583c-0.735-1.249-1.41-2.702-2.004-3.968
				c3.014,0,5.657,0,5.969,0C63.159,5.32,63.244,4.433,62.335,4.433z"/>
			<path fill="#040303" d="M57.418,21.542c-6.148-0.956-8.089-3.832-9.178-8.353c-0.361-1.517-2.063-1.787-2.063,0.065
				c0,1.855,1.959,9.013,11.07,9.397c0.912,0.037,4.006,0.021,4.006-0.333C61.254,21.96,59.575,21.913,57.418,21.542z"/>
		</g>
		<path fill="#040303" d="M83.942,18.917c-0.035-0.982-6.08,3.643-10.604,1.92c-3.643-1.379-1.078-10.615-0.783-15.133
			c0.257-3.988-1.466-5.402-3.182-5.469c-0.949-0.036,1.623,1.185,1.161,5.461c-0.354,3.292-2.832,15.402,1.041,16.764
			C76.705,24.261,83.974,19.724,83.942,18.917z"/>
		<path fill="#040303" d="M109.68,9.349c-0.13-0.267-0.453-0.384-0.721-0.253l-1.752,0.843c-0.327-0.524-0.872-0.904-1.533-0.985
			c-1.158-0.138-2.209,0.687-2.348,1.841c-0.041,0.337,0.009,0.662,0.113,0.959l-3.526,1.699c0.023-0.156,0.049-0.311,0.083-0.456
			c0.34-1.57,1.181-2.002,1.626-2.123h0.416c-0.064-0.211-0.104-0.435-0.104-0.663c0-0.063,0.004-0.125,0.009-0.185
			c-0.772,0-4.73-0.002-7.057-0.002c0.123-1.139,0.862-3.016,4.437-3.016L98.53,6.986h7.832c0.895,0,1.325-0.888-0.061-0.888
			c-0.397,0-13.396-0.005-14.899-0.005c0.049-0.275,0.096-0.549,0.148-0.809c0.074-0.373,0.152-0.713,0.238-1.026
			c1.876,0,12.236,0,13.197,0c1.056,0,2.303-0.309,2.303-1.204c0-0.896,0-1.379,0-1.87c0-0.487-0.596-1.033-2.545-1.033
			c-1.955,0-14.812,0-15.603,0c-0.798,0-1.239,0.12-1.229,0.495c0.005,0.376,0.463,0.286,1.166,0.286c0.185,0,1.292,0,2.826,0
			c-1.01,0.55-2.148,1.777-2.689,4.5c-0.433,2.189-0.78,7.694-1.303,11.948c-0.594,4.801-1.8,5.384-1.8,5.384l0.064,0.341
			c0,0,3.819-0.674,4.313-8.095c0.185-2.83,0.411-5.643,0.771-8.023h4.372c-1.588,0.332-3.337,1.98-3.337,3.889
			c0.149,0,0.315,0,0.482,0h2.121h4.813c-0.887,0.299-1.774,0.906-2.03,2.135c-0.076,0.363-0.105,0.918-0.119,1.574l-6.231,3.004
			c-0.271,0.13-0.382,0.454-0.254,0.724c0.13,0.27,0.452,0.383,0.723,0.254l5.758-2.775c0.005,1.035,0.014,2.164-0.043,3.143
			c-0.134,2.354-1.288,2.64-1.288,2.64l0.014,0.023c-2.902,0-5.315-0.002-5.584-0.002c-1.078,0-0.785,0.931,0.073,0.931h16.56
			c0.895,0,1.324-0.926-0.067-0.926c-0.238,0-5.622,0-10.192,0c1.079-0.302,2.992-1.2,2.834-3.83
			c-0.063-1.052-0.103-2.104-0.063-3.061l4.259-2.049c0.304,0.257,0.685,0.433,1.111,0.485c1.158,0.14,2.205-0.688,2.343-1.844
			c0.014-0.104,0.011-0.208,0.009-0.311l1.907-0.919C109.696,9.942,109.807,9.618,109.68,9.349z M104.42,0.938
			c0.407,0,0.621,0.411,0.621,0.814c0,0.407,0,0.755,0,1.058c0,0.304-0.235,0.555-0.969,0.555c-0.639,0-9.674,0-12.02,0
			c0.588-1.751,1.246-2.277,1.594-2.43C98.078,0.935,104.152,0.938,104.42,0.938z M105.527,9.852
			c0.127,0.306-0.014,0.658-0.316,0.789c-0.308,0.131-0.661-0.009-0.793-0.314c-0.127-0.307,0.013-0.662,0.32-0.789
			C105.041,9.405,105.397,9.548,105.527,9.852z"/>
	</g>
	<g>
		<path fill="#040303" d="M149.221,12.012c-0.168,0.944-1.404,1.208-1.651,0.473c-0.2-0.603-1.008-1.86-1.855-1.367
			c-0.768,0.449-1.137,1.283-1.311,2.126c0,3.177,0,8.972,0,8.972s-2.871,1.163-2.871,0.323c0-0.835,0-11.365,0-11.687
			c0-0.321-1.353-1.162-0.579-0.965c0.82,0.205,3.45,0.837,3.45,1.349c0,0.075,0,0.353,0,0.762c0.453-1.048,1.291-1.979,2.842-1.979
			C148.791,10.02,149.396,11.065,149.221,12.012z M142.323,11.397l0.004,0.433l0.043,0.446l0.003,0.381l-0.003,0.394l-0.009,0.405
			l-0.023,0.431l0.045,0.355l-0.01,0.37l0.005,0.389l-0.021,0.407l0.025,0.431l-0.03,0.353l0.011,0.374l0.002,0.396l-0.008,0.424
			l-0.016,0.339l0.021,0.364l0.028,0.391l0.003,0.43l-0.021,0.34l0.014,0.377l0.021,0.42l-0.011,0.326l-0.02,0.377l-0.008,0.273
			l0.013,0.325l-0.02,0.4l0.045,0.287v0.047l0.342-0.461l0.144-0.161l-0.03-0.375l0.021-0.439l0.027-0.441l-0.021-0.371l-0.006-0.41
			l-0.003-0.436l0.039-0.461l-0.025-0.488l-0.021-0.513l-0.008-0.354l0.058-0.361l-0.01-0.377l-0.037-0.378l0.022-0.39l-0.023-0.391
			l0.001-0.404l0.034-0.405l0.004-0.412l-0.041-0.415l-0.012-0.416l0.037-0.415l-0.03-0.212l-0.014-0.209l-0.012-0.203l0.04-0.195
			l-0.007-0.192l-0.369-0.295L142.323,11.397z"/>
		<path fill="#040303" d="M159.429,10.287c-0.858,0.272-1.577,0.618-2.12,1.222c-0.469-0.529-1.455-1.369-2.997-1.369
			c-2.849,0-6.021,2.726-5.429,7.582c0.536,4.383,4.574,5.131,5.962,5.131c0.8,0,1.51-0.67,1.972-1.242
			c0.185,1.676,0.141,3.152-0.768,4.647c-2.456,4.043-5.845,2.232-5.092,0.741c0.382-0.755,1.18-0.746,1.774,0.34
			c0.599,1.084,2.365-0.332,0.219-1.463c-2.144-1.13-3.727,1.234-2.136,2.835c1.586,1.6,8.701,0.674,9.028-5.229
			c0.199-3.636-0.915-6.479-0.712-8.883c0.223-2.598,0.938-3.985,2.198-4.131C162.636,10.321,160.418,9.973,159.429,10.287z
			 M154.999,22.229c-1.805,0-3.047-2.572-3.047-4.635c0-2.751,0.642-6.701,3.047-6.701c1.033,0,1.624,0.499,1.966,1.065
			c-0.557,0.888-0.835,2.221-0.759,4.343c0.066,1.916,0.393,3.534,0.575,4.994C156.431,21.794,155.875,22.229,154.999,22.229z
			 M151.076,12.084l-0.165,0.391l-0.111,0.401l-0.104,0.4l-0.093,0.456l-0.104,0.382l-0.062,0.417l-0.038,0.435l-0.095,0.441
			l-0.018,0.466l-0.01,0.354l-0.024,0.358l0.036,0.363l-0.009,0.367l0.064,0.366l0.014,0.371l0.055,0.37l0.084,0.367l0.104,0.362
			l0.11,0.366l0.125,0.356l0.142,0.354l0.089,0.24l0.113,0.229l0.068,0.119l-0.309-0.345l-0.269-0.382l-0.215-0.418l-0.216-0.42
			l-0.182-0.438l-0.115-0.34l-0.116-0.342l-0.064-0.359l-0.042-0.36l-0.06-0.365l-0.025-0.365l-0.007-0.375l0.042-0.37l0.026-0.369
			l0.044-0.37l0.092-0.366l0.057-0.372l0.141-0.35l0.1-0.368l0.173-0.337l0.137-0.354l0.215-0.323l0.203-0.322l0.127-0.223
			L151.076,12.084z"/>
		<path fill="#040303" d="M172.926,16.534c0,3.701-2.614,6.701-5.84,6.701c-3.225,0-5.836-3-5.836-6.701
			c0-3.698,2.611-6.696,5.836-6.696C170.312,9.838,172.926,12.836,172.926,16.534z M167.086,10.294c-2.106,0-2.729,2.793-2.729,6.24
			c0,3.449,0.623,6.246,2.729,6.246c2.109,0,2.556-2.797,2.556-6.246C169.642,13.088,169.195,10.294,167.086,10.294z M164.03,11.625
			l-0.149,0.124l-0.188,0.12l-0.271,0.337l-0.148,0.179l-0.095,0.217l-0.266,0.373l-0.182,0.428l-0.197,0.428l-0.137,0.453
			l-0.125,0.465l-0.087,0.481l-0.022,0.492l-0.038,0.495l-0.021,0.51l-0.026,0.165l0.051,0.389l0.035,0.378l0.066,0.375l0.068,0.363
			l0.12,0.342l0.075,0.35l0.18,0.299l0.193,0.404l0.188,0.379l0.197,0.35l0.213,0.301l0.262,0.301l0.284,0.332l-0.089-0.135
			l-0.076-0.197l-0.214-0.363l-0.166-0.404l-0.17-0.41l-0.131-0.422l-0.157-0.41l-0.125-0.42l-0.038-0.43l-0.076-0.427l-0.08-0.415
			l-0.03-0.42l-0.013-0.251l0.029-0.262l0.002-0.382l-0.024-0.381l0.042-0.369l0.042-0.361l0.106-0.341l0.067-0.34l0.085-0.441
			l0.158-0.401l0.139-0.384l0.111-0.371l0.199-0.395l0.248-0.376l0.22-0.392L164.03,11.625z"/>
		<path fill="#040303" d="M140.014,20.835c0,0-1.807,1.869-1.807,0.583c0-1.292,0-4.511,0-7.604c0-3.089-2.253-3.863-3.992-3.863
			c-0.9,0-1.546,0-2.64,0c-1.096,0-1.538-0.063-2.056,0.581c-0.516,0.643-4.936,7.303-4.936,7.303s0-4.845,0-5.342
			c0-0.786-0.761-0.786-0.761-0.786l-2.17-0.018l-2.92,5.698c-0.456-3.984-2.305-4.907-3.486-6.471
			c-1.398-1.852-0.86-3.325,0.301-3.358c1.697-0.05,1.778,1.065,0.793,1.561c-0.897,0.446-0.248,1.408,0.675,0.943
			c1.362-0.689,1.344-3.01-1.616-3.01c-2.104,0-4.666,2.874-2.161,5.56c2.494,2.685,3.258,4.96,3.258,9.834
			c0,0.497,0.21,0.318,0.21,0.318l5.14-10.493c0,0,0,9.35,0,10.12s0.236,0.413,0.236,0.413l7.754-11.889
			c0.511-0.579,0.898-0.513,1.417-0.513c0.516,0,0.757,0,1.59,0c1.998,0,2.447,1.869,2.447,3.349c0,0.084,0,0.183,0,0.286
			c-0.864-0.023-1.906-0.015-2.878,0.291c-1.756,0.556-3.289,1.938-3.289,4.124c0,3.994,3.481,4.38,4.384,4.38
			c1.194,0,1.897-0.361,2.299-0.699c0.584,0.454,1.564,0.699,2.401,0.699c1.291,0,2.128-1.158,2.257-1.61
			C140.59,20.771,140.335,20.516,140.014,20.835z M132.265,18.903c-0.13-2.897,0.277-4.379,2.017-4.379c0.409,0,0.738,0,1.009,0
			c0,1.974,0,5.805,0,6.696c0,0.194,0.058,0.368,0.159,0.529C133.924,22.618,132.368,21.214,132.265,18.903z M113.094,9.089
			l-0.034,0.429l0.011,0.45l0.134,0.42l0.148,0.358l0.246,0.337l0.233,0.381l0.218,0.272l0.235,0.278l0.244,0.287l0.136,0.135
			l0.268,0.262l0.212,0.323l0.235,0.311l0.251,0.312l0.19,0.365l0.185,0.37l0.215,0.364l0.182,0.386l0.197,0.384l0.169,0.402
			l0.092,0.428l0.191,0.398l0.104,0.422l0.065,0.279l0.068,0.279L117.351,18l0.017,0.28l0.072,0.268l-0.002,0.271l0.042,0.265
			l-0.036,0.244l-0.065,0.497l-0.048,0.366l-0.057,0.245l-0.042-0.382l-0.005-0.366l-0.076-0.436l-0.046-0.39l-0.081-0.417
			l-0.044-0.443l-0.089-0.336l-0.117-0.333l-0.093-0.354l-0.048-0.37l-0.156-0.346l-0.141-0.347l-0.12-0.364l-0.166-0.345
			l-0.14-0.358l-0.15-0.21l-0.119-0.229l-0.08-0.209l-0.306-0.443l-0.284-0.402l-0.23-0.369l-0.255-0.285l-0.284-0.356l-0.25-0.253
			l-0.206-0.21l-0.284-0.285l-0.174-0.283l-0.147-0.197l-0.061-0.189l-0.183-0.381l-0.033-0.408l0.004-0.396l0.078-0.382
			L113.094,9.089z M131.273,15.651L131.053,16l-0.165,0.309l-0.133,0.385l-0.136,0.416l-0.086,0.338l-0.081,0.35l-0.055,0.37
			l0.006,0.255l-0.027,0.246l0.043,0.496l0.157,0.5l0.108,0.355l0.174,0.35l0.17,0.363l0.23,0.342l0.233,0.332l0.217,0.299
			l0.066,0.085l-0.328-0.191l-0.324-0.27l-0.28-0.272l-0.257-0.332l-0.253-0.371l-0.131-0.318l-0.144-0.324l-0.092-0.355
			l-0.055-0.374l-0.013-0.24l-0.009-0.46l0.021-0.451l0.127-0.42l0.139-0.408l0.197-0.375l0.224-0.36l0.292-0.291l0.155-0.145
			l0.151-0.124L131.273,15.651z"/>
	</g>
</g>
</svg>
